<?xml version="1.0" encoding="utf-8"?>
<!-- Generator: Adobe Illustrator 22.0.1, SVG Export Plug-In . SVG Version: 6.00 Build 0)  -->
<svg version="1.1" id="Réteg_1" xmlns="http://www.w3.org/2000/svg" xmlns:xlink="http://www.w3.org/1999/xlink" x="0px" y="0px"
	 viewBox="0 0 80 80" style="enable-background:new 0 0 80 80;" xml:space="preserve">
<style type="text/css">
	.st0{fill:#FDFDFD;}
</style>
<g id="Layer_3">
</g>
<g id="Logo_1_">
	<path class="st0" d="M5.5,17.5c7,0,14,0,21,0c0,2.5,0,4.9,0,7.5c-4.6,0-9.3,0-14,0c0,12.5,0,25,0,37.5c-2.4,0-4.7,0-7,0
		C5.5,47.5,5.5,32.5,5.5,17.5z"/>
	<path class="st0" d="M32.6,62.4c0.6-0.3,1.1-0.6,1.7-0.9c4-2.1,8.1-4.2,12.1-6.3c0.2-0.1,0.5-0.2,0.8-0.2c8.9,0,17.9,0,26.8,0
		c0.2,0,0.3,0,0.5,0c0,2.5,0,5,0,7.5C60.5,62.5,46.6,62.5,32.6,62.4C32.6,62.4,32.6,62.4,32.6,62.4z"/>
	<path class="st0" d="M32.4,25c0-2.5,0-4.9,0-7.4c13.8,0,27.7,0,41.6,0c-0.2,0.1-0.3,0.2-0.5,0.3c-4.4,2.3-8.9,4.6-13.3,6.9
		C60,24.9,59.8,25,59.6,25c-9,0-17.9,0-26.9,0C32.6,25,32.5,25,32.4,25z"/>
</g>
</svg>
